<svg xmlns="http://www.w3.org/2000/svg" viewBox="0 0 96 96">
  <defs>
    <linearGradient id="crabMain" x1="0" y1="0" x2="0" y2="1">
      <stop offset="0%" stop-color="#ff8e73" />
      <stop offset="100%" stop-color="#ff745f" />
    </linearGradient>
    <linearGradient id="crabAlt" x1="0" y1="0" x2="0" y2="1">
      <stop offset="0%" stop-color="#ef6c78" />
      <stop offset="100%" stop-color="#d84b59" />
    </linearGradient>
  </defs>

  <ellipse cx="48" cy="52" rx="24" ry="16" fill="url(#crabMain)" />

  <path d="M27 46L12 28L20 52Z" fill="url(#crabAlt)" />
  <path d="M69 46L84 28L76 52Z" fill="url(#crabAlt)" />

  <rect x="19" y="56" width="8" height="18" rx="3" fill="url(#crabAlt)" />
  <rect x="32" y="60" width="8" height="16" rx="3" fill="url(#crabAlt)" />
  <rect x="56" y="60" width="8" height="16" rx="3" fill="url(#crabAlt)" />
  <rect x="69" y="56" width="8" height="18" rx="3" fill="url(#crabAlt)" />

  <rect x="34" y="32" width="5" height="12" rx="2.5" fill="url(#crabAlt)" />
  <rect x="57" y="32" width="5" height="12" rx="2.5" fill="url(#crabAlt)" />
  <circle cx="36.5" cy="30" r="4.5" fill="#ffffff" fill-opacity="0.9" />
  <circle cx="59.5" cy="30" r="4.5" fill="#ffffff" fill-opacity="0.9" />
</svg>
